<svg id="Layer_1" data-name="Layer 1" xmlns="http://www.w3.org/2000/svg" viewBox="0 0 576.46 565.59"><defs><style>.cls-1{fill:#231f20;}.cls-2,.cls-4{fill:#d1d3d4;}.cls-2{stroke:#231f20;stroke-miterlimit:10;stroke-width:25px;}.cls-3{fill:#bcbec0;}.cls-5{fill:#fff;}.cls-6{fill:#6d6e71;}.cls-7{fill:#939598;}.cls-8{fill:#414042;}.cls-9{fill:#ed1c24;}.cls-10{fill:#f37475;}.cls-11{fill:#58595b;}</style></defs><path class="cls-1" d="M31.24,180.92a416.86,416.86,0,0,0,82.34,60.2,322.28,322.28,0,0,0-96.41,31.66,321.12,321.12,0,0,1,2.3-38.72c9.48-2,19.14-3.65,28.75-4.88-8.67-4.82-17.24-10-25.53-15.46C25.12,202.53,27.89,191.87,31.24,180.92Z"/><path class="cls-1" d="M42.8,152.1l80.63,39.18a138.23,138.23,0,0,0-6.84,16.63L32.67,176.73A206.9,206.9,0,0,1,42.8,152.1Z"/><path class="cls-1" d="M122.53,146.33l20.3,15.23a17.35,17.35,0,0,1-1.87,3.31c-4,5.4-9.78,8.36-17.83,9.23a42.13,42.13,0,0,1-25-5.2c-8.37-4.5-14.19-10.86-16.78-19.46a26.23,26.23,0,0,1,4.14-24.07c5.94-8,13.54-11.9,21.9-11.84s16.35,4,24.18,11.31L155,146.58A135.38,135.38,0,0,0,143.78,159l-24-18.51a14.58,14.58,0,0,0-7.85-3.42,6.58,6.58,0,0,0-6,2.68,6.84,6.84,0,0,0-1,6.18,9.81,9.81,0,0,0,4.22,5.66,11,11,0,0,0,6.73,2,6.42,6.42,0,0,0,5.12-2.62A7.4,7.4,0,0,0,122.53,146.33Z"/><path class="cls-1" d="M132,51.9a220,220,0,0,1,21.19-12.17l27.26,46.06c5,8.46,7.26,16.27,7.3,23.31a26.65,26.65,0,0,1-2.22,11.14,18,18,0,0,1-6.23,7.81c-5.37,3.7-11.73,4.57-19.77,2.83a44.14,44.14,0,0,1-22.3-12.32c-6.48-6.5-10.15-14-10.22-22.67s3.49-15.75,10.32-20.49a50.83,50.83,0,0,1,5.2-3.05l15.9,21.45a7.5,7.5,0,0,0-5.51.9,6.12,6.12,0,0,0-2.64,5.26,9.73,9.73,0,0,0,2.48,6.44,10.72,10.72,0,0,0,5.87,3.69,7,7,0,0,0,5.87-.87c3.92-2.7,3.44-7.43-1.58-14.4Q147.48,73.36,132,51.9Z"/><path class="cls-1" d="M263,52.8A221.16,221.16,0,0,1,286.46,52c-.94,11.38-3.8,23.06-10,32.66-5.17,7.92-11.75,12.36-20.44,13.83s-17.09-.93-26.07-7.38a62.19,62.19,0,0,1-21.12-27.26c-4.43-11-5.05-23.62.6-34.38,5.85-11.13,17.13-18.07,29.28-20.1s25,1,34.31,9.09c6.53,5.64,11.61,15.92,13.12,24.32a229,229,0,0,0-24.65,3.41c-4-9.06-10.31-13.11-18.4-11.74a14.89,14.89,0,0,0-11.26,8c-2.29,4.39-2.51,9.44-.92,15.11a23.89,23.89,0,0,0,8,12.6c3.72,3,7.57,4.08,11.78,3.36a13,13,0,0,0,9.53-6.34C262.28,63.67,263.28,58.88,263,52.8Z"/><path class="cls-1" d="M318.49,31.75l-7.11,62.64c-6.66-.63-10-.82-16.7-.93q.61-31.47,1.24-63C305,30.65,309.49,30.9,318.49,31.75ZM309.15,2.86a12,12,0,0,1,8.51,4,10.09,10.09,0,0,1,2.78,8.27,11.13,11.13,0,0,1-4.19,7.75,12.19,12.19,0,0,1-8.61,2.57,11.89,11.89,0,0,1-8.2-3.51,10.83,10.83,0,0,1-3.12-8.15,10.32,10.32,0,0,1,3.85-7.91A12.31,12.31,0,0,1,309.15,2.86Z"/><path class="cls-1" d="M360,37.45a24.5,24.5,0,0,1,17.52,15.18c3.18,7.9,2.56,16-1.07,24.35a43.08,43.08,0,0,1-16.12,19.21c-6.87,4.51-13,6-19.25,4.49S330.35,95,326.84,87.93a39.37,39.37,0,0,1-3.59-24c1.4-9.13,5.32-16.52,12.43-21.76A28.32,28.32,0,0,1,360,37.45ZM352.9,59.84a7.08,7.08,0,0,0-6.14,1.4,11.37,11.37,0,0,0-3.4,13.05,6.16,6.16,0,0,0,4.23,3.86,6.85,6.85,0,0,0,5.81-1.4,11.31,11.31,0,0,0,4.18-5.84,9.79,9.79,0,0,0-.06-7A6.48,6.48,0,0,0,352.9,59.84Z"/><path class="cls-1" d="M429,39.7,402.22,85c-4.35,7.36-4.4,12.08-.28,14.39a7.07,7.07,0,0,0,5.95.34,10.8,10.8,0,0,0,5.51-4.26,9.64,9.64,0,0,0,1.94-6.55A5.94,5.94,0,0,0,412.26,84c-1.29-.73-3.19-.89-5.67-.46l13.84-22.67a53.56,53.56,0,0,1,5.46,2.55,23.59,23.59,0,0,1,12.34,19.28C439,91.21,436,99,430,106.07A44.27,44.27,0,0,1,409,120.38c-7.85,2.46-14.26,2.18-19.95-1a18,18,0,0,1-6.93-7.19,26.55,26.55,0,0,1-3.25-10.86c-.61-7,.89-14.94,5.09-23.77l22.86-48.1A233,233,0,0,1,429,39.7Z"/><path class="cls-1" d="M451.5,136.54,432.19,153a16.52,16.52,0,0,1-2.93-2.4c-4.58-4.82-6.27-10.72-5.36-18.42s4.2-15.28,10.59-22.55C440.7,102.5,448.1,98.12,457,97.15s16.83,1.81,22.87,8.17c6.74,7.08,9.27,15.14,7.64,23.17s-7.19,14.93-16,21L445,167.59a134.25,134.25,0,0,0-10.45-13.26l23.34-19.27c2.66-2.2,4.34-4.46,5-6.81a6.08,6.08,0,0,0-1.48-6.15,7,7,0,0,0-5.94-2.06,10.32,10.32,0,0,0-6.49,3,10.56,10.56,0,0,0-3.42,6,5.87,5.87,0,0,0,1.55,5.33A7.69,7.69,0,0,0,451.5,136.54Z"/><path class="cls-1" d="M467.85,214.47a140.48,140.48,0,0,0-6.25-17.12l33.8-14.95c3.44-1.52,4.63-3.58,3.49-6.1s-3.41-2.87-6.8-1.23l-33.25,16.17a135.44,135.44,0,0,0-8.33-15.32l31.2-19c7.3-4.43,14.75-6.15,22.42-4.47a23.2,23.2,0,0,1,16.76,13.68c3.8,8.4,3.28,16.88-1.32,24.39-3.6,5.88-10,10.16-19,13.12Z"/><path class="cls-1" d="M532.92,208.53a214.3,214.3,0,0,1,4.8,25.82L501.4,240c-3.65.57-5.28,2.25-4.95,5.09s2.28,4,5.95,3.6l36.49-4.16a263.77,263.77,0,0,1,1.33,28.24H504a33.28,33.28,0,0,1-21.46-7.64c-6-4.81-9.19-10.26-9.95-16.88-.87-7.53,1.38-13.87,7-20,4.38-4.75,11-8.5,20.07-10.91Z"/><path class="cls-1" d="M551.05,376.26a417.26,417.26,0,0,0-82.34-60.2,322,322,0,0,0,96.41-31.65,321.24,321.24,0,0,1-2.3,38.72c-9.48,2-19.14,3.65-28.75,4.87,8.67,4.83,17.24,10,25.53,15.47C557.17,354.66,554.4,365.32,551.05,376.26Z"/><path class="cls-1" d="M539.49,405.08,458.86,365.9a139.74,139.74,0,0,0,6.84-16.62l83.92,31.18A207.73,207.73,0,0,1,539.49,405.08Z"/><path class="cls-1" d="M459.76,410.86l-20.31-15.23a17.27,17.27,0,0,1,1.88-3.31c4-5.4,9.78-8.36,17.83-9.24a42.22,42.22,0,0,1,25,5.21c8.37,4.5,14.18,10.86,16.78,19.45a26.22,26.22,0,0,1-4.15,24.08c-5.93,8-13.53,11.89-21.89,11.84s-16.35-4.06-24.18-11.32L427.3,410.61a135.5,135.5,0,0,0,11.21-12.43l24,18.52c2.74,2.11,5.35,3.27,7.85,3.41a6.52,6.52,0,0,0,5.95-2.67,6.81,6.81,0,0,0,1-6.18,9.81,9.81,0,0,0-4.22-5.66,10.92,10.92,0,0,0-6.73-2.05,6.44,6.44,0,0,0-5.13,2.61A7.5,7.5,0,0,0,459.76,410.86Z"/><path class="cls-1" d="M450.26,505.29a222.11,222.11,0,0,1-21.19,12.17L401.81,471.4c-5-8.47-7.26-16.27-7.3-23.32A26.64,26.64,0,0,1,396.73,437a17.92,17.92,0,0,1,6.23-7.81c5.37-3.7,11.72-4.57,19.77-2.83A44,44,0,0,1,445,438.63c6.49,6.5,10.16,14,10.23,22.67s-3.49,15.75-10.32,20.49a54.42,54.42,0,0,1-5.2,3l-15.9-21.44a7.46,7.46,0,0,0,5.51-.91,6.1,6.1,0,0,0,2.64-5.25,9.73,9.73,0,0,0-2.48-6.44,10.76,10.76,0,0,0-5.87-3.69,7,7,0,0,0-5.87.87c-3.92,2.7-3.44,7.42,1.58,14.39Z"/><path class="cls-1" d="M319.26,504.38a215.7,215.7,0,0,1-23.43.76c.94-11.38,3.8-23.05,10.05-32.65,5.17-7.93,11.74-12.36,20.44-13.84s17.08.94,26.06,7.38a62.16,62.16,0,0,1,21.13,27.27c4.43,11,5.05,23.62-.6,34.38-5.86,11.13-17.13,18.07-29.28,20.09s-24.95-1-34.31-9.08c-6.53-5.64-11.61-15.93-13.13-24.33A224,224,0,0,0,320.85,511c4,9.07,10.31,13.11,18.4,11.74a14.87,14.87,0,0,0,11.26-8c2.29-4.39,2.51-9.44.92-15.11a23.81,23.81,0,0,0-8-12.6c-3.73-3-7.57-4.08-11.78-3.36a13,13,0,0,0-9.53,6.34C320,493.52,319,498.31,319.26,504.38Z"/><path class="cls-1" d="M263.8,525.43l7.11-62.64c6.66.64,10,.82,16.7.93q-.63,31.48-1.24,63C277.32,526.54,272.8,526.29,263.8,525.43Zm9.34,28.9a12,12,0,0,1-8.51-4,10.12,10.12,0,0,1-2.78-8.28,11.09,11.09,0,0,1,4.19-7.74,12.09,12.09,0,0,1,8.6-2.57,11.93,11.93,0,0,1,8.21,3.5,10.87,10.87,0,0,1,3.12,8.16,10.35,10.35,0,0,1-3.85,7.91A12.31,12.31,0,0,1,273.14,554.33Z"/><path class="cls-1" d="M222.27,519.73a24.52,24.52,0,0,1-17.53-15.17c-3.17-7.9-2.55-16,1.08-24.36A43.1,43.1,0,0,1,221.94,461c6.87-4.52,13-6,19.25-4.5s10.74,5.67,14.26,12.76a39.36,39.36,0,0,1,3.59,24c-1.4,9.13-5.33,16.51-12.43,21.76A28.29,28.29,0,0,1,222.27,519.73Zm7.12-22.38a7.11,7.11,0,0,0,6.14-1.4,11.39,11.39,0,0,0,3.4-13.06A6.16,6.16,0,0,0,234.7,479a6.84,6.84,0,0,0-5.81,1.39,11.43,11.43,0,0,0-4.19,5.84,9.84,9.84,0,0,0,.07,7A6.51,6.51,0,0,0,229.39,497.35Z"/><path class="cls-1" d="M153.28,517.49l26.79-45.3c4.35-7.35,4.4-12.07.28-14.38a7,7,0,0,0-5.95-.34,10.9,10.9,0,0,0-5.52,4.25,9.72,9.72,0,0,0-1.93,6.56,5.94,5.94,0,0,0,3.08,4.87c1.29.72,3.19.89,5.67.46l-13.84,22.67a55.84,55.84,0,0,1-5.46-2.55,23.61,23.61,0,0,1-12.34-19.28c-.73-8.48,2.25-16.21,8.19-23.33a44.15,44.15,0,0,1,21.09-14.31c7.85-2.46,14.26-2.18,19.94,1a18,18,0,0,1,6.94,7.2,26.51,26.51,0,0,1,3.25,10.85c.61,7-.9,14.95-5.09,23.78l-22.86,48.09A232.89,232.89,0,0,1,153.28,517.49Z"/><path class="cls-1" d="M130.79,420.65l19.31-16.41a17.34,17.34,0,0,1,2.93,2.39c4.58,4.82,6.27,10.73,5.36,18.42s-4.2,15.29-10.59,22.56c-6.21,7.07-13.61,11.46-22.55,12.42a26.46,26.46,0,0,1-22.87-8.16c-6.75-7.09-9.28-15.14-7.64-23.17s7.19-14.94,16-21l26.5-18.11a132.87,132.87,0,0,0,10.44,13.25l-23.33,19.28c-2.66,2.19-4.34,4.46-5,6.81a6.09,6.09,0,0,0,1.49,6.14,7,7,0,0,0,5.94,2.07,10.33,10.33,0,0,0,6.48-3,10.55,10.55,0,0,0,3.43-6,5.89,5.89,0,0,0-1.55-5.32A7.66,7.66,0,0,0,130.79,420.65Z"/><path class="cls-1" d="M114.44,342.72a140.32,140.32,0,0,0,6.25,17.11l-33.8,15c-3.45,1.52-4.63,3.57-3.49,6.09s3.41,2.88,6.8,1.23L123.45,366a135.44,135.44,0,0,0,8.33,15.32l-31.2,19c-7.3,4.44-14.75,6.16-22.42,4.47A23.15,23.15,0,0,1,61.4,391c-3.8-8.41-3.28-16.88,1.32-24.4,3.6-5.87,10-10.16,19-13.11Z"/><path class="cls-1" d="M49.37,348.66a212.72,212.72,0,0,1-4.8-25.82l36.32-5.66c3.65-.57,5.28-2.25,5-5.1s-2.28-4-6-3.59l-36.5,4.16a269.09,269.09,0,0,1-1.33-28.24H78.29a33.29,33.29,0,0,1,21.47,7.64c6,4.81,9.19,10.26,9.95,16.87.87,7.53-1.39,13.88-7,20-4.38,4.76-11,8.51-20.07,10.92Z"/><circle class="cls-2" cx="291.14" cy="278.82" r="188.7"/><circle class="cls-3" cx="291.14" cy="278.82" r="188.7"/><circle class="cls-4" cx="291.14" cy="278.82" r="152.64"/><path class="cls-5" d="M270.82,245.17l0-20.77a40.17,40.17,0,1,0-48.72,1.44v23.52l-63.37,63.36v68.1H348.54l69.2-69.21V245.17Z"/><path class="cls-1" d="M275.82,245.13l0-20.77-1.44,2.91c11.83-9.72,18.21-25.31,15.78-40.53A44.84,44.84,0,0,0,267,154.29a46.36,46.36,0,0,0-41.28-.89c-12.2,5.8-21.66,17.29-24.4,30.59a43.57,43.57,0,0,0,13.11,41.38,42,42,0,0,0,4.12,3.4l-1.49-2.89v23.51l1.44-2.91L201.11,263.9l-31.45,31.44-11.27,11.28-2.74,2.74a5.37,5.37,0,0,0-1.94,3.69c-.11,3.86,0,7.73,0,11.59v56.21c0,2.58,2.76,4.07,5,4.07H344.52c2.44,0,5.57.4,7.58-1.23.6-.49,1.12-1.13,1.66-1.67l4.3-4.3,14.3-14.29,18-18,17.08-17.08L419,316.82c.75-.75,1.51-1.49,2.24-2.24,1.49-1.53,1.54-2.73,1.54-4.56V245.13c0-2.57-2.76-4.06-5-4.06H288.87c-5.94,0-11.89-.13-17.83,0h-.25c-2.2,0-5.13,1.6-5,4.14s2.63,4.06,5,4.06H399.7c5.92,0,11.9.24,17.82,0h.26l-5-4.06v66.44l1.45-2.91-6.86,6.86-16.58,16.57-20,20L353.52,369.4c-2.79,2.79-5.78,5.48-8.42,8.42L345,378l3.53-1.23H166.39c-2.46,0-4.93-.07-7.38,0h-.33l5,4.06V312.69l-1.44,2.91,9.8-9.8,21.61-21.61,21.68-21.68c3.42-3.42,6.91-6.79,10.27-10.27,1.59-1.65,1.45-3.13,1.45-5.14V226.54a4.48,4.48,0,0,0-.44-2.31,9.62,9.62,0,0,0-2.87-2.7c-.84-.68-1.65-1.4-2.43-2.14-.37-.35-.73-.71-1.09-1.07s.44.5,0,0c-.12-.15-.26-.28-.38-.42-.72-.81-1.41-1.64-2.07-2.5a41.67,41.67,0,0,1-3.41-5.31c.37.69-.18-.36-.28-.57-.22-.47-.44-.93-.64-1.41-.44-1-.84-2-1.19-3.07s-.6-1.86-.84-2.81c-.14-.51-.26-1-.37-1.53,0-.19-.35-1.82-.22-1.06a43.66,43.66,0,0,1-.11-12.19c-.11.92.07-.39.12-.65.09-.46.18-.92.29-1.38.2-.91.44-1.81.7-2.7a40.19,40.19,0,0,1,2-5.32c.13-.3.56-1.15.18-.4.2-.41.42-.81.64-1.21.47-.84,1-1.67,1.5-2.48a40.27,40.27,0,0,1,3.27-4.33l.44-.51c.1-.11.61-.63.19-.2s.09-.1.2-.2l.47-.48c.69-.68,1.39-1.33,2.12-2s1.3-1.08,2-1.59l1.1-.8c.27-.2,1.56-1,.54-.39a43.71,43.71,0,0,1,4.8-2.62c.78-.35,1.58-.68,2.38-1,1.14-.46-.73.22.44-.17.49-.16,1-.32,1.49-.46a41,41,0,0,1,5.49-1.19,4.06,4.06,0,0,1,.7-.09c-1.11,0-.59.06-.26,0l1.43-.12c1-.06,1.94-.08,2.91-.08s1.93.08,2.89.13c.29,0,1,0-.26,0a5.51,5.51,0,0,1,.71.08c.53.07,1.06.14,1.58.23a40.75,40.75,0,0,1,5.45,1.3c1.18.37-.72-.27.44.15l1.13.43c.91.36,1.8.75,2.67,1.18s1.53.77,2.27,1.19l1.18.69c-1.06-.62.42.29.69.48a39.57,39.57,0,0,1,4.26,3.36c.63.57,1.23,1.17,1.83,1.76.45.45-.49-.57-.09-.08l.46.5c.34.38.67.76,1,1.15a40.29,40.29,0,0,1,3.18,4.4c.48.78.93,1.57,1.36,2.36-.4-.73.05.1.19.4.23.46.44.93.65,1.4a39.85,39.85,0,0,1,1.86,5.21c.25.9.47,1.8.66,2.72.06.26.27,1.57.14.65.06.47.14.93.2,1.4a41.28,41.28,0,0,1,.3,6.09c0,1-.09,2.06-.2,3.09-.06.54-.12,1.08-.2,1.62,0-.18.13-.71,0,.12-.06.33-.12.66-.19,1a39.51,39.51,0,0,1-1.76,6.14c-.37,1-.78,2-1.22,2.91-.1.2-.66,1.28-.29.6-.31.58-.62,1.15-.95,1.71a40.4,40.4,0,0,1-3.57,5.12c-.32.4-.67.79-1,1.18,0,0-.46.53-.13.16s-.19.2-.28.29c-.76.79-1.56,1.55-2.39,2.28-1.28,1.12-2.49,2.06-2.63,3.91,0,.11,0,.22,0,.33,0,.65,0,1.31,0,2l0,15v3.49C265.82,250.61,275.82,250.55,275.82,245.13Z"/><polygon class="cls-3" points="417.75 245.17 226.26 245.17 158.71 312.73 349.52 312.73 417.75 245.17"/><polygon class="cls-6" points="417.75 245.17 417.75 311.61 348.54 380.82 348.54 312.73 417.75 245.17"/><rect class="cls-7" x="158.71" y="312.72" width="189.83" height="68.09"/><rect class="cls-8" x="222.08" y="218.34" width="33.04" height="67.9"/><path class="cls-9" d="M359.26,261.42l-18.81-.05A74.33,74.33,0,0,0,316,261.3l-19.13-.05,0,11.72c0,7,14,12.64,31.22,12.64S359.25,280,359.25,273a1.11,1.11,0,0,0,0-.19Z"/><ellipse class="cls-10" cx="328.03" cy="261.75" rx="31.22" ry="12.65"/><polygon class="cls-11" points="255.12 218.34 270.78 202.68 270.84 270.52 255.12 286.24 255.12 218.34"/><circle class="cls-9" cx="245.49" cy="193.22" r="40.16"/><ellipse class="cls-10" cx="253.56" cy="185.1" rx="29.43" ry="27.32"/><ellipse class="cls-5" cx="259.9" cy="176.49" rx="13.67" ry="10.21"/></svg>